<mxfile host="app.diagrams.net" modified="2024-02-05T20:23:56.041Z" agent="Mozilla/5.0 (Windows NT 10.0; Win64; x64) AppleWebKit/537.36 (KHTML, like Gecko) Chrome/120.0.0.0 Safari/537.36" version="23.1.1" etag="HKxrfPYo0zXivbF5f3bZ" type="github">
  <diagram name="PÃ¡gina-1" id="8YrBT_2v0vrBPJop3JWk">
    <mxGraphModel>
      <root>
        <mxCell id="0" />
        <mxCell id="1" parent="0" />
      </root>
    </mxGraphModel>
  </diagram>
</mxfile>
